# xmcd CD database file
#
# Track frame offsets:
#	150
#	14682
#	31912
#	51657
#	67562
#	80912
#	97694
#	112517
#	130551
#	147267
#	161072
#	175839
#	191481
#	209647
#	226724
#
# Disc length: 3252 seconds
#
# Revision: 1
# Processed by: cddbd v1.5.2PL0 Copyright (c) Steve Scherf et al.
# Submitted via: CDex 1.70beta2
#
DISCID=be0cb20f
DTITLE=Various Artist - NU COUNTRY TRAXX 186
DYEAR=2014
DGENRE=Country
TTITLE0=Garth Brooks - People Loving People
TTITLE1=Tim McGraw - Shotgun Rider
TTITLE2=Eric Church - Talladega
TTITLE3=Brad Paisley - Perfect Storm
TTITLE4=The Railers - Kinda Dig The Feeling
TTITLE5=Trisha Yearwood ft. Kelly Clarkson - Prize Fighter
TTITLE6=Sara Evans - Put My Heart Down
TTITLE7=Josh Turner - Lay Low
TTITLE8=Chuck Wicks - Saturday Afternoon
TTITLE9=Kelsea Ballerini - Love Me Like You Mean It
TTITLE10=Jon Pardi - When I've Been Drinking
TTITLE11=Jackie Lee - She Does
TTITLE12=Paul Brandt - Forever Summer
TTITLE13=Deric Ruttan - Good Thing Gone
TTITLE14=Tebey - Now I Do
EXTD=YEAR: 2014
EXTT0=
EXTT1=
EXTT2=
EXTT3=
EXTT4=
EXTT5=
EXTT6=
EXTT7=
EXTT8=
EXTT9=
EXTT10=
EXTT11=
EXTT12=
EXTT13=
EXTT14=
PLAYORDER=
